<svg width="308" height="82" viewBox="0 0 308 82" fill="none" xmlns="http://www.w3.org/2000/svg">
<g clip-path="url(#clip0_2_2)">
<rect width="308" height="82" fill="white"/>
<path d="M-121 63.8045C-66.76 46.4712 -32.86 46.4712 -19.3 63.8045C-5.74 81.1378 28.16 81.1378 82.4 63.8045C136.64 46.4712 170.54 46.4712 184.1 63.8045C197.66 81.1378 231.56 81.1378 285.8 63.8045C340.04 46.4712 373.94 46.4712 387.5 63.8045C401.06 81.1378 434.96 81.1378 489.2 63.8045C543.44 46.4712 577.34 46.4712 590.9 63.8045C604.46 81.1378 638.36 81.1378 692.6 63.8045C746.84 46.4712 780.74 46.4712 794.3 63.8045C807.86 81.1378 841.76 81.1378 896 63.8045" stroke="#FCFCFF" stroke-width="2"/>
<path d="M20.938 70.1786C21.0203 71.1993 21.2084 71.9389 21.5022 72.3974C21.7934 72.8241 22.2976 73.1057 23.015 73.2424C23.7642 73.3766 24.9363 73.3815 26.5315 73.2572C26.6272 73.2497 26.6828 73.3417 26.6982 73.533C26.7136 73.7244 26.6735 73.8238 26.5778 73.8313C25.2698 73.9333 24.2476 73.9969 23.5112 74.0222L19.344 74.2989L16.0459 74.6041C15.4423 74.6833 14.63 74.7626 13.6091 74.8422C13.5134 74.8497 13.4578 74.7577 13.4424 74.5663C13.427 74.375 13.4671 74.2755 13.5628 74.2681C14.7114 74.1786 15.5344 74.0342 16.032 73.8349C16.5296 73.6356 16.8561 73.3052 17.0115 72.8438C17.1644 72.3504 17.2022 71.6253 17.1251 70.6684L15.3391 48.5162C15.2619 47.5594 15.1097 46.8651 14.8822 46.4335C14.6548 46.0018 14.2635 45.7274 13.7083 45.6102C13.1824 45.4586 12.3612 45.4263 11.2445 45.5134C11.1488 45.5208 11.0933 45.4289 11.0778 45.2375C11.0624 45.0461 11.1026 44.9467 11.1983 44.9392L13.5949 44.8006C15.0037 44.7549 16.107 44.701 16.9046 44.6389C17.6702 44.5792 18.5756 44.4605 19.6207 44.2827C20.0036 44.2529 20.5925 44.1909 21.3875 44.0968C22.2118 43.9684 22.9271 43.8805 23.5332 43.8333C26.5321 43.5995 28.9948 44.0816 30.9213 45.2795C32.8452 46.4455 33.9152 48.3682 34.1312 51.0475C34.2984 53.1207 33.9134 54.9161 32.9763 56.4335C32.0711 57.9484 30.8333 59.1202 29.2628 59.9487C27.7242 60.7748 26.0936 61.2549 24.3708 61.3892C23.4456 61.4614 22.6735 61.4413 22.0545 61.3291C21.9588 61.3365 21.9045 61.2605 21.8916 61.101C21.8839 61.0053 21.8921 60.9084 21.9163 60.8102C21.9724 60.7096 22.0336 60.6727 22.1 60.6996C22.6208 60.7874 23.1842 60.8077 23.7904 60.7604C25.7046 60.6112 27.2604 59.7999 28.4578 58.3264C29.6553 56.8529 30.1499 54.8243 29.9416 52.2407C29.7384 49.7208 28.9422 47.8089 27.5529 46.505C26.1611 45.1691 24.4123 44.5832 22.3067 44.7474C21.3177 44.8245 20.6063 44.9602 20.1726 45.1545C19.7362 45.3169 19.4416 45.6447 19.2887 46.1381C19.1333 46.5996 19.0955 47.3247 19.1752 48.3135L20.938 70.1786Z" fill="#1E1B75"/>
<path d="M58.3822 67.3852C55.5785 67.908 52.9515 67.7271 50.501 66.8427C48.0749 65.9225 46.044 64.4607 44.4084 62.4573C42.7971 60.4182 41.736 58.0737 41.2249 55.4238C40.6267 52.3223 40.8995 49.5263 42.0432 47.0359C43.1811 44.5153 44.8636 42.4702 47.0906 40.9008C49.3478 39.3257 51.7577 38.2992 54.3202 37.8214C57.1841 37.2874 59.8321 37.4955 62.264 38.4458C64.6901 39.366 66.6879 40.8183 68.2574 42.8029C69.8571 44.7818 70.8951 47.0058 71.3713 49.475C71.8997 52.2152 71.6611 54.8644 70.6554 57.4227C69.6497 59.9811 68.0537 62.1503 65.8673 63.9306C63.7111 65.7052 61.216 66.8568 58.3822 67.3852ZM59.7733 66.0964C61.7027 65.7366 63.3403 64.9165 64.6862 63.6361C66.032 62.3557 66.9592 60.6855 67.4676 58.6255C68.0003 56.5297 68.0112 54.1569 67.5001 51.507C66.96 48.7066 65.9806 46.3001 64.5618 44.2874C63.1731 42.2692 61.4403 40.8142 59.3632 39.9225C57.3163 39.0252 55.0869 38.8014 52.6752 39.2511C49.5399 39.8358 47.3041 41.3601 45.9679 43.8241C44.6259 46.2579 44.315 49.3418 45.0351 53.0756C45.5868 55.9363 46.5837 58.4331 48.0257 60.5662C49.4677 62.6993 51.2058 64.2625 53.24 65.2558C55.3044 66.2434 57.4821 66.5236 59.7733 66.0964Z" fill="#1E1B75"/>
<path d="M102.246 55.1156C101.479 55.3447 99.6567 54.4868 96.7779 52.5418C93.9298 50.5877 90.3205 47.7424 85.95 44.0057L88.7336 42.1217C92.5211 45.1643 95.6348 47.4898 98.0747 49.0984C100.515 50.707 102.56 51.7988 104.212 52.3739C105.884 52.9092 107.365 52.9845 108.652 52.5996C108.744 52.5721 108.819 52.6501 108.875 52.8335C108.932 53.0169 108.914 53.1224 108.822 53.1499L102.246 55.1156ZM82.2592 29.6292C84.804 28.8685 86.9316 28.8171 88.6421 29.4747C90.3526 30.1324 91.4914 31.3784 92.0584 33.2127C92.5688 34.8636 92.5461 36.5236 91.9903 38.1926C91.4557 39.8219 90.5141 41.2722 89.1655 42.5436C87.8075 43.7845 86.224 44.6752 84.4151 45.2159C83.7712 45.4083 83.0106 45.6023 82.1332 45.7977L85.3231 56.1159C85.6066 57.0331 85.9112 57.6935 86.237 58.0971C86.5532 58.4701 86.9803 58.6598 87.5181 58.666C88.0866 58.6631 88.9227 58.4967 90.0264 58.1668C90.1184 58.1393 90.1927 58.2172 90.2495 58.4007C90.3062 58.5841 90.2885 58.6896 90.1965 58.7171C89.2461 59.0011 88.4902 59.2104 87.9289 59.3448L84.6034 60.2886L81.3984 61.2967C80.8253 61.5014 80.0482 61.7504 79.0671 62.0436C78.9751 62.0711 78.9007 61.9931 78.844 61.8097C78.7873 61.6263 78.805 61.5208 78.8969 61.4933C80.0007 61.1634 80.7895 60.8441 81.2635 60.5355C81.7375 60.2268 82.0003 59.831 82.0519 59.348C82.0941 58.8344 81.9734 58.119 81.6899 57.2019L75.126 35.9693C74.8424 35.0522 74.5425 34.4071 74.2262 34.034C73.91 33.661 73.4676 33.4759 72.8991 33.4789C72.3519 33.4421 71.5263 33.5886 70.4226 33.9185C70.3613 33.9368 70.3023 33.8543 70.2456 33.6708C70.1888 33.4874 70.1912 33.3865 70.2525 33.3682L72.5661 32.7268C73.9341 32.3847 75.0166 32.0945 75.8138 31.8563C76.4576 31.6638 77.0661 31.4652 77.6392 31.2606C78.2123 31.0559 78.7087 30.8741 79.1285 30.7152C80.2652 30.2753 81.3088 29.9132 82.2592 29.6292ZM88.7409 35.8074C87.9848 33.3616 86.9803 31.7916 85.7274 31.0973C84.4651 30.3725 82.9141 30.285 81.0746 30.8349C79.8788 31.1923 79.1066 31.6736 78.7578 32.2788C78.3995 32.8534 78.4094 33.7522 78.7875 34.9751L81.7788 44.6513C82.6963 44.4772 83.615 44.2528 84.5347 43.9778C86.7422 43.318 88.1653 42.3416 88.8038 41.0487C89.4329 39.7251 89.412 37.978 88.7409 35.8074Z" fill="#1E1B75"/>
<path d="M106.94 24.6023C105.035 24.9849 103.657 25.821 102.804 27.1106C101.946 28.3696 101.498 30.2174 101.46 32.6538C101.442 32.7213 101.341 32.7736 101.156 32.8106C101.003 32.8415 100.916 32.8109 100.897 32.7188C100.842 31.8352 100.69 30.4115 100.442 28.4479C100.194 26.4844 99.9683 25.0117 99.7644 24.03C99.7326 23.8766 99.8088 23.7814 99.9931 23.7444C100.177 23.7074 100.286 23.7655 100.317 23.9189C100.458 24.5939 101.372 24.7617 103.062 24.4223C105.723 23.9838 108.82 23.4098 112.353 22.7003C114.165 22.3363 116.079 21.92 118.094 21.4514L121.218 20.7761C122.354 20.5478 123.168 20.3046 123.658 20.0463C124.148 19.788 124.423 19.4134 124.481 18.9223C124.486 18.7935 124.565 18.7136 124.719 18.6827C124.903 18.6457 125.008 18.6886 125.034 18.8113C125.12 19.6888 125.299 21.0909 125.571 23.0177C125.874 24.9382 126.144 26.4661 126.379 27.6012C126.399 27.6932 126.316 27.7577 126.132 27.7948C125.978 27.8256 125.892 27.795 125.873 27.703C125.167 25.3839 124.202 23.82 122.978 23.0112C121.747 22.1717 120.134 21.9525 118.137 22.3535C117 22.5818 116.202 22.822 115.743 23.0741C115.277 23.2955 114.993 23.6242 114.891 24.06C114.783 24.4652 114.822 25.1126 115.007 26.0022L119.413 47.2164C119.611 48.1674 119.846 48.8392 120.12 49.2317C120.424 49.618 120.884 49.8292 121.5 49.8654C122.115 49.9016 123.068 49.7901 124.358 49.531C124.42 49.5186 124.47 49.6045 124.508 49.7886C124.546 49.9726 124.535 50.0708 124.473 50.0832C123.398 50.2991 122.55 50.4534 121.929 50.5462L118.279 51.2312L114.741 51.9898C114.133 52.1439 113.276 52.332 112.17 52.5541C112.078 52.5726 112.012 52.4898 111.974 52.3058C111.936 52.1217 111.963 52.0204 112.055 52.0019C113.315 51.7489 114.22 51.4872 114.772 51.2165C115.355 50.9398 115.709 50.565 115.835 50.0923C115.954 49.589 115.918 48.8771 115.727 47.9568L111.301 26.6506C111.123 25.7916 110.903 25.1965 110.642 24.8654C110.375 24.5036 109.968 24.3138 109.42 24.2959C108.903 24.2719 108.076 24.3741 106.94 24.6023Z" fill="#1E1B75"/>
<path d="M133.418 49.0175C133.322 49.0166 133.275 48.9202 133.277 48.7282C133.279 48.5362 133.327 48.4406 133.423 48.4415C134.575 48.4525 135.408 48.3804 135.922 48.2253C136.467 48.0705 136.838 47.77 137.035 47.3239C137.231 46.8457 137.334 46.1267 137.344 45.1667L137.563 22.9438C137.572 21.9839 137.483 21.279 137.296 20.8292C137.108 20.3794 136.743 20.0719 136.201 19.9067C135.691 19.7098 134.86 19.6059 133.708 19.5949C133.612 19.594 133.565 19.4976 133.566 19.3056C133.568 19.1136 133.617 19.0181 133.713 19.019L153.296 19.2055C153.616 19.2085 153.775 19.354 153.772 19.642L153.809 25.6906C153.808 25.7866 153.711 25.8497 153.519 25.8799C153.359 25.8784 153.263 25.8295 153.232 25.7332C153.025 23.9711 152.415 22.6212 151.4 21.6835C150.385 20.7458 149.046 20.269 147.382 20.2532L144.934 20.2299C143.526 20.2165 142.58 20.4155 142.096 20.8269C141.612 21.2383 141.364 22.02 141.353 23.1719L141.138 45.0109C141.126 46.1628 141.327 46.9487 141.738 47.3687C142.182 47.7889 143.06 48.0053 144.372 48.0178L147.54 48.048C149.332 48.065 150.825 47.5512 152.019 46.5066C153.246 45.4302 154.093 43.9022 154.561 41.9225C154.561 41.8586 154.626 41.8272 154.754 41.8284C154.85 41.8293 154.929 41.8621 154.993 41.9267C155.088 41.9596 155.136 41.992 155.136 42.024C154.793 44.3249 154.612 46.4832 154.592 48.4991C154.589 48.7551 154.54 48.9467 154.442 49.0737C154.345 49.1688 154.153 49.215 153.865 49.2123L133.418 49.0175ZM151.286 38.1472C151.299 36.7713 150.909 35.7595 150.116 35.1119C149.354 34.4326 148.126 34.0849 146.43 34.0688L139.422 34.002L139.433 32.8981L146.537 32.9657C148.168 32.9813 149.371 32.7207 150.144 32.184C150.918 31.6154 151.311 30.7391 151.322 29.5551C151.323 29.4912 151.403 29.4599 151.563 29.4614C151.755 29.4633 151.851 29.4962 151.85 29.5602L151.763 33.5915L151.789 35.7519C151.843 36.7764 151.867 37.5767 151.862 38.1527C151.861 38.2167 151.765 38.2478 151.573 38.2459C151.381 38.2441 151.285 38.2112 151.286 38.1472Z" fill="#1E1B75"/>
<path d="M166.624 49.6676C166.534 49.6337 166.524 49.5273 166.594 49.3485C166.664 49.1696 166.744 49.0971 166.833 49.131C167.941 49.549 168.779 49.7794 169.346 49.8224C169.913 49.8654 170.368 49.7121 170.71 49.3625C171.094 48.9944 171.461 48.3632 171.81 47.4688L179.889 26.7652C180.238 25.8709 180.404 25.1812 180.387 24.6961C180.37 24.2109 180.136 23.7978 179.685 23.4568C179.276 23.0972 178.533 22.714 177.455 22.3074C177.365 22.2735 177.355 22.1671 177.425 21.9883C177.495 21.8094 177.574 21.7369 177.664 21.7708L195.988 28.6837C196.287 28.7967 196.384 28.9873 196.28 29.2556L194.171 34.9237C194.136 35.0132 194.023 35.0389 193.832 35.0009C193.682 34.9445 193.61 34.8659 193.614 34.7651C194.045 33.0465 193.949 31.5742 193.329 30.3482C192.708 29.1222 191.619 28.2155 190.062 27.6282L187.772 26.764C186.484 26.2783 185.526 26.1389 184.895 26.3457C184.307 26.534 183.815 27.1349 183.419 28.1485L175.427 48.6285C175.055 49.5825 174.902 50.3282 174.967 50.8657C175.073 51.3847 175.451 51.8692 176.1 52.3192C176.748 52.7691 177.851 53.2878 179.408 53.8752C179.468 53.8978 179.463 53.9985 179.393 54.1774C179.324 54.3562 179.259 54.4344 179.199 54.4118C177.971 53.9487 177.019 53.5723 176.342 53.2827L172.138 51.6453L168.977 50.504C168.396 50.3191 167.612 50.0404 166.624 49.6676ZM186.64 46.0361C187.141 44.7542 187.118 43.6683 186.572 42.7784C186.038 41.8587 184.917 41.0769 183.211 40.4331L177.507 38.2812L177.909 37.2528L183.747 39.4554C185.364 40.0654 186.651 40.2433 187.609 39.9891C188.597 39.7462 189.3 39.0881 189.719 38.0149C189.742 37.9553 189.843 37.9594 190.023 38.0271C190.203 38.0949 190.281 38.1586 190.258 38.2182L188.747 41.9575C188.398 42.8518 188.151 43.5282 188.007 43.9866L187.179 46.2394C187.156 46.299 187.055 46.2949 186.875 46.2272C186.695 46.1594 186.617 46.0957 186.64 46.0361Z" fill="#1E1B75"/>
<path d="M199.079 67.6642C196.48 66.4909 194.439 64.8463 192.956 62.7304C191.514 60.5993 190.715 58.2533 190.557 55.6924C190.439 53.1162 190.952 50.6055 192.093 48.1602C193.43 45.2981 195.298 43.1809 197.698 41.8085C200.112 40.4083 202.691 39.7051 205.435 39.6989C208.207 39.7053 210.781 40.2448 213.156 41.3172C215.812 42.5158 217.854 44.1945 219.282 46.3534C220.724 48.4844 221.502 50.8039 221.618 53.3118C221.761 55.8324 221.3 58.2319 220.236 60.5105C219.056 63.0392 217.302 65.0566 214.974 66.5629C212.647 68.0691 210.065 68.9226 207.231 69.1233C204.424 69.3366 201.707 68.8502 199.079 67.6642ZM200.975 67.4096C202.764 68.2171 204.585 68.4841 206.438 68.2106C208.292 67.937 210.033 67.1079 211.661 65.7232C213.329 64.3233 214.735 62.4007 215.876 59.9554C217.083 57.3712 217.698 54.8566 217.723 52.4118C217.776 49.9796 217.215 47.809 216.042 45.9001C214.897 44.0038 213.206 42.551 210.97 41.5416C208.063 40.2295 205.339 40.194 202.797 41.4351C200.267 42.6484 198.198 44.9779 196.59 48.4236C195.357 51.0634 194.703 53.6613 194.626 56.2173C194.55 58.7733 195.051 61.0348 196.129 63.0018C197.235 64.9815 198.85 66.4508 200.975 67.4096Z" fill="#1E1B75"/>
<path d="M234.688 67.5268C234.745 68.421 234.866 69.0708 235.052 69.4761C235.268 69.8476 235.621 70.0985 236.11 70.2288C236.597 70.3271 237.352 70.3449 238.374 70.2822L242.446 70.0324C244.458 69.9089 246.082 69.2162 247.316 67.9542C248.581 66.6583 249.372 64.9747 249.689 62.9034C249.683 62.8076 249.761 62.7708 249.923 62.7929C250.114 62.7812 250.213 62.8232 250.219 62.919C250.11 65.747 250.114 68.0871 250.232 69.9394C250.248 70.1949 250.196 70.3904 250.077 70.526C249.987 70.6277 249.814 70.6863 249.559 70.702L227.233 72.0719C227.169 72.0758 227.131 71.9819 227.119 71.7903C227.107 71.5987 227.132 71.5009 227.196 71.497C228.346 71.4265 229.188 71.2947 229.72 71.1017C230.253 70.9087 230.601 70.5828 230.765 70.1239C230.926 69.6331 230.976 68.9087 230.915 67.9506L229.508 45.7712C229.447 44.8132 229.307 44.1165 229.086 43.6811C228.866 43.2458 228.48 42.9649 227.927 42.8386C227.372 42.6803 226.519 42.6364 225.369 42.7069C225.305 42.7109 225.267 42.617 225.255 42.4254C225.243 42.2338 225.269 42.136 225.333 42.1321L227.731 42.033C229.141 42.0107 230.277 41.973 231.139 41.9201C232.001 41.8672 233.133 41.7657 234.535 41.6156L236.927 41.4207C236.991 41.4168 237.029 41.5106 237.041 41.7023C237.053 41.8939 237.027 41.9916 236.964 41.9956C235.814 42.0661 234.973 42.2138 234.443 42.4388C233.942 42.6298 233.611 42.9707 233.449 43.4615C233.286 43.9204 233.235 44.6288 233.296 45.5869L234.688 67.5268Z" fill="#1E1B75"/>
<path d="M266.423 61.9478C266.74 62.8877 267.046 63.5451 267.342 63.9199C267.668 64.2848 268.099 64.4637 268.637 64.4564C269.206 64.4392 270.053 64.247 271.178 63.8796C271.239 63.8598 271.3 63.9408 271.362 64.1227C271.423 64.3046 271.423 64.4055 271.362 64.4254C270.389 64.7431 269.623 64.9761 269.066 65.1245L265.765 66.1513L262.586 67.2392C262.018 67.4581 261.232 67.7314 260.228 68.059C260.168 68.0789 260.106 67.9979 260.045 67.8159C259.984 67.634 259.983 67.5331 260.044 67.5133C261.139 67.1559 261.92 66.817 262.386 66.4966C262.852 66.1762 263.104 65.774 263.144 65.29C263.203 64.7657 263.079 64.0488 262.772 63.1392L255.665 42.0824C255.358 41.1728 255.026 40.5406 254.67 40.1856C254.344 39.8207 253.897 39.6468 253.329 39.664C252.75 39.6509 251.913 39.823 250.818 40.1804C250.757 40.2003 250.696 40.1192 250.635 39.9373C250.573 39.7554 250.573 39.6545 250.634 39.6347L253.022 38.9057C254.381 38.5296 255.456 38.2124 256.247 37.9543C257.129 37.6663 258.229 37.2737 259.547 36.7762L261.768 36.001C261.829 35.9811 261.89 36.0622 261.951 36.2441C262.013 36.426 262.013 36.5269 261.952 36.5467C260.857 36.9042 260.082 37.2582 259.626 37.6089C259.2 37.9497 258.973 38.3772 258.944 38.8916C258.905 39.3756 259.039 40.0724 259.346 40.982L266.423 61.9478Z" fill="#1E1B75"/>
<path d="M290.036 60.3955C287.29 61.1671 284.656 61.2227 282.133 60.5621C279.63 59.8638 277.472 58.591 275.658 56.7438C273.864 54.8588 272.591 52.6206 271.838 50.0292C270.956 46.996 270.97 44.1889 271.881 41.6078C272.783 38.9972 274.271 36.8111 276.345 35.0494C278.45 33.2795 280.756 32.0419 283.266 31.3366C286.07 30.5484 288.728 30.5182 291.239 31.2459C293.741 31.9442 295.866 33.2106 297.613 35.045C299.389 36.8711 300.628 38.9915 301.33 41.4062C302.109 44.086 302.115 46.744 301.348 49.3803C300.582 52.0166 299.191 54.3186 297.177 56.2864C295.191 58.2459 292.811 59.6156 290.036 60.3955ZM291.303 58.9881C293.193 58.4571 294.749 57.4941 295.972 56.0992C297.196 54.7043 297.966 52.9589 298.283 50.8631C298.62 48.7295 298.413 46.367 297.659 43.7756C296.863 41.0369 295.666 38.7297 294.067 36.8538C292.497 34.9696 290.636 33.6769 288.485 32.9757C286.362 32.2661 284.12 32.2432 281.758 32.907C278.688 33.7699 276.6 35.4874 275.496 38.0594C274.383 40.602 274.357 43.6991 275.418 47.3506C276.231 50.1481 277.455 52.5437 279.088 54.5374C280.721 56.5311 282.597 57.931 284.716 58.7372C286.864 59.5351 289.06 59.6187 291.303 58.9881Z" fill="#1E1B75"/>
</g>
<defs>
<clipPath id="clip0_2_2">
<rect width="308" height="82" fill="white"/>
</clipPath>
</defs>
</svg>
