<svg width="303" height="82" viewBox="0 0 303 82" fill="none" xmlns="http://www.w3.org/2000/svg">
<g clip-path="url(#clip0_19_6615)">
<rect width="303" height="82" fill="#020202"/>
<rect width="308" height="82" fill="#020202"/>
<path d="M-124 57.437C-70.08 40.5067 -36.38 40.5067 -22.9 57.437C-9.42 74.3672 24.28 74.3672 78.2 57.437C132.12 40.5067 165.82 40.5067 179.3 57.437C192.78 74.3672 226.48 74.3672 280.4 57.437C334.32 40.5067 368.02 40.5067 381.5 57.437C394.98 74.3672 428.68 74.3672 482.6 57.437C536.52 40.5067 570.22 40.5067 583.7 57.437C597.18 74.3672 630.88 74.3672 684.8 57.437C738.72 40.5067 772.42 40.5067 785.9 57.437C799.38 74.3672 833.08 74.3672 887 57.437" stroke="url(#paint0_linear_19_6615)" stroke-opacity="0.67" stroke-width="2"/>
<path d="M17.2337 64.5792C17.3174 65.5997 17.5065 66.3394 17.801 66.7983C18.0929 67.2252 18.5977 67.5075 19.3153 67.6451C20.0649 67.7802 21.2373 67.7867 22.8327 67.6645C22.9284 67.6572 22.9841 67.7492 22.9998 67.9406C23.0155 68.1319 22.9755 68.2313 22.8798 68.2386C21.5716 68.3388 20.5493 68.4011 19.8128 68.4254L15.6451 68.6964L12.3467 68.9972C11.7431 69.0755 10.9308 69.1538 9.90974 69.232C9.81402 69.2393 9.75831 69.1473 9.74261 68.9559C9.72691 68.7646 9.76692 68.6652 9.86264 68.6579C11.0113 68.5699 11.8343 68.4267 12.3317 68.2281C12.8291 68.0295 13.1553 67.6997 13.3101 67.2385C13.4622 66.7455 13.4991 66.0205 13.4206 65.0638L11.6031 42.9142C11.5246 41.9574 11.3713 41.2631 11.1432 40.8313C10.9151 40.3994 10.5233 40.1246 9.96784 40.0066C9.44163 39.8544 8.62016 39.821 7.50343 39.9065C7.40771 39.9139 7.352 39.8219 7.3363 39.6305C7.3206 39.4391 7.36061 39.3398 7.45633 39.3325L9.85324 39.197C11.2624 39.1533 12.3658 39.1009 13.1634 39.0398C13.9292 38.9811 14.8346 38.8637 15.8797 38.6873C16.2625 38.658 16.8515 38.5969 17.6465 38.5039C18.4709 38.3765 19.1862 38.2897 19.7924 38.2432C22.7916 38.0135 25.2555 38.4988 27.1841 39.699C29.1101 40.8673 30.183 42.791 30.4028 45.47C30.5729 47.543 30.1904 49.3374 29.2552 50.8532C28.352 52.3666 27.1155 53.5364 25.5459 54.3627C24.0081 55.1865 22.3777 55.6644 20.6548 55.7964C19.7295 55.8672 18.9572 55.8462 18.3379 55.7331C18.2422 55.7405 18.1878 55.6644 18.1747 55.5049C18.1668 55.4093 18.1749 55.3124 18.199 55.2142C18.255 55.1137 18.3162 55.0769 18.3826 55.1039C18.9036 55.1924 19.4672 55.2134 20.0734 55.167C21.9878 55.0203 23.5428 54.2112 24.7384 52.7396C25.9341 51.2681 26.4259 49.2406 26.2139 46.6573C26.0072 44.1378 25.2081 42.2252 23.8167 40.9197C22.4227 39.5823 20.6727 38.9942 18.5669 39.1555C17.5778 39.2312 16.8664 39.3659 16.4328 39.5596C15.9966 39.7214 15.7024 40.0488 15.5502 40.5419C15.3954 41.003 15.3586 41.728 15.4397 42.7166L17.2337 64.5792Z" fill="white"/>
<path d="M54.4284 60.9005C51.6231 61.4144 48.9924 61.2262 46.5364 60.3356C44.1047 59.4095 42.067 57.9435 40.4233 55.9377C38.8038 53.8963 37.7342 51.5515 37.2144 48.9034C36.606 45.8039 36.8705 43.0121 38.0079 40.5279C39.1393 38.0137 40.8175 35.9761 43.0422 34.415C45.2972 32.8484 47.7067 31.8302 50.2706 31.3605C53.1363 30.8355 55.7879 31.0511 58.2256 32.0073C60.6573 32.9335 62.6619 34.39 64.2394 36.3767C65.847 38.3579 66.893 40.5823 67.3773 43.0499C67.9148 45.7883 67.6841 48.4337 66.6851 50.986C65.6861 53.5382 64.0949 55.7003 61.9115 57.472C59.7582 59.2382 57.2639 60.381 54.4284 60.9005ZM55.8171 59.6173C57.7476 59.2636 59.3846 58.4493 60.7281 57.1744C62.0716 55.8995 62.9946 54.234 63.4973 52.1779C64.0242 50.0862 64.0277 47.7163 63.5079 45.0681C62.9586 42.2695 61.9706 39.8631 60.544 37.8487C59.1476 35.8288 57.4082 34.3705 55.326 33.4738C53.2739 32.5716 51.0413 32.3416 48.6282 32.7837C45.491 33.3585 43.2574 34.8744 41.9272 37.3315C40.5912 39.7585 40.2894 42.8377 41.0218 46.5692C41.5829 49.428 42.5886 51.9247 44.0389 54.0595C45.4891 56.1942 47.2341 57.7606 49.2737 58.7586C51.3435 59.7511 53.5246 60.0373 55.8171 59.6173Z" fill="white"/>
<path d="M98.3999 49.808C97.6323 50.0335 95.8012 49.1707 92.9066 47.2198C90.0428 45.2598 86.4119 42.408 82.0142 38.6644L84.7973 36.7967C88.6077 39.8459 91.7394 42.1773 94.1924 43.7911C96.6455 45.4048 98.7012 46.5017 100.36 47.0818C102.039 47.6223 103.523 47.7032 104.813 47.3245C104.905 47.2974 104.98 47.3755 105.037 47.5586C105.095 47.7418 105.078 47.8469 104.986 47.8739L98.3999 49.808ZM78.2535 24.3133C80.8018 23.5649 82.9349 23.522 84.6527 24.1846C86.3705 24.8473 87.5176 26.0943 88.0938 27.9258C88.6124 29.5741 88.5966 31.2294 88.0463 32.8915C87.517 34.5141 86.579 35.9567 85.2321 37.2192C83.8757 38.4512 82.2917 39.3332 80.4802 39.8652C79.8354 40.0545 79.0736 40.2449 78.1947 40.4364L81.4361 50.7385C81.7242 51.6542 82.0324 52.314 82.3607 52.7177C82.6794 53.091 83.1084 53.2818 83.6476 53.2901C84.2176 53.2895 85.0553 53.1268 86.1606 52.8022C86.2527 52.7752 86.3276 52.8532 86.3852 53.0364C86.4428 53.2195 86.4256 53.3246 86.3335 53.3517C85.3817 53.6312 84.6246 53.8368 84.0624 53.9686L80.732 54.8967L77.5226 55.8892C76.9488 56.0911 76.1707 56.3362 75.1882 56.6248C75.096 56.6518 75.0212 56.5738 74.9635 56.3906C74.9059 56.2075 74.9232 56.1024 75.0153 56.0753C76.1206 55.7507 76.9102 55.4355 77.3842 55.1296C77.8581 54.8237 78.1199 54.43 78.1697 53.9485C78.2099 53.4366 78.0859 52.7227 77.7978 51.807L71.1276 30.6075C70.8395 29.6918 70.5361 29.0473 70.2174 28.6741C69.8987 28.3008 69.4544 28.1145 68.8844 28.1152C68.3356 28.0763 67.5085 28.2192 66.4031 28.5438C66.3417 28.5618 66.2822 28.4792 66.2246 28.2961C66.167 28.1129 66.1689 28.0124 66.2303 27.9943L68.5474 27.3638C69.9176 27.0282 71.0018 26.7431 71.8001 26.5086C72.4449 26.3193 73.0541 26.1237 73.6279 25.9219C74.2016 25.72 74.6986 25.5407 75.1189 25.3839C76.2568 24.9497 77.3017 24.5929 78.2535 24.3133ZM84.7783 30.5C84.01 28.0581 82.9962 26.4884 81.7371 25.7912C80.4683 25.0634 78.9129 24.97 77.0707 25.511C75.8732 25.8627 75.1009 26.3396 74.7537 26.9417C74.3969 27.5133 74.4106 28.4096 74.7948 29.6306L77.8345 39.2917C78.7537 39.1218 79.6739 38.9016 80.595 38.6311C82.8056 37.9818 84.2284 37.0138 84.8633 35.727C85.4885 34.4096 85.4602 32.6673 84.7783 30.5Z" fill="white"/>
<path d="M102.723 19.4557C100.817 19.8318 99.4396 20.6624 98.5905 21.9477C97.7349 23.2023 97.2921 25.0461 97.2621 27.479C97.2443 27.5464 97.1432 27.5983 96.9588 27.6347C96.8051 27.665 96.7185 27.6342 96.699 27.5422C96.6405 26.6596 96.484 25.2375 96.2294 23.2758C95.9748 21.3142 95.7438 19.8429 95.5364 18.8619C95.504 18.7086 95.58 18.6138 95.7645 18.5774C95.9489 18.541 96.0573 18.5994 96.0897 18.7527C96.2323 19.4271 97.149 19.5975 98.8397 19.2639C101.503 18.8342 104.602 18.2706 108.137 17.573C109.951 17.2151 111.866 16.8053 113.882 16.3436L117.007 15.6789C118.145 15.4545 118.959 15.2141 119.449 14.9577C119.939 14.7013 120.212 14.328 120.269 13.8378C120.274 13.7091 120.353 13.6296 120.507 13.5993C120.691 13.5629 120.796 13.606 120.822 13.7286C120.911 14.6052 121.095 16.0059 121.374 17.9309C121.684 19.8497 121.959 21.3763 122.198 22.5105C122.218 22.6025 122.135 22.6667 121.951 22.7031C121.797 22.7334 121.711 22.7026 121.691 22.6106C120.977 20.2926 120.006 18.7278 118.777 17.9164C117.543 17.0743 115.926 16.8503 113.928 17.2446C112.791 17.4691 111.992 17.7065 111.533 17.9568C111.067 18.1765 110.784 18.5038 110.683 18.9387C110.577 19.343 110.617 19.9896 110.805 20.8786L115.287 42.0771C115.488 43.0274 115.726 43.6989 116.001 44.0917C116.307 44.4784 116.768 44.6908 117.385 44.7288C118.001 44.7669 118.955 44.6585 120.246 44.4037C120.308 44.3916 120.358 44.4775 120.397 44.6614C120.436 44.8454 120.424 44.9434 120.363 44.9555C119.287 45.1678 118.438 45.3193 117.817 45.41L114.164 46.0828L110.624 46.8294C110.015 46.9814 109.158 47.1666 108.051 47.3849C107.959 47.4031 107.893 47.3203 107.854 47.1363C107.816 46.9524 107.842 46.8513 107.934 46.8331C109.195 46.5844 110.101 46.3258 110.653 46.0573C111.235 45.7827 111.588 45.4096 111.713 44.9379C111.831 44.4356 111.793 43.7246 111.598 42.805L107.097 21.5146C106.916 20.6562 106.694 20.0613 106.432 19.7298C106.163 19.3677 105.754 19.1769 105.206 19.1574C104.688 19.1318 103.86 19.2312 102.723 19.4557Z" fill="white"/>
<path d="M128.919 44.0171C128.823 44.0162 128.776 43.9198 128.778 43.7278C128.78 43.5358 128.829 43.4402 128.925 43.4411C130.076 43.4519 130.909 43.3797 131.423 43.2245C131.968 43.0696 132.339 42.7691 132.536 42.3229C132.733 41.8447 132.836 41.1256 132.846 40.1657L133.068 17.9428C133.078 16.9828 132.989 16.278 132.802 15.8282C132.614 15.3784 132.249 15.071 131.707 14.9059C131.197 14.7091 130.366 14.6054 129.214 14.5946C129.118 14.5937 129.071 14.4972 129.073 14.3052C129.075 14.1133 129.123 14.0177 129.219 14.0186L148.803 14.2019C149.123 14.2048 149.281 14.3503 149.278 14.6383L149.314 20.6869C149.313 20.7829 149.216 20.846 149.024 20.8762C148.864 20.8747 148.768 20.8258 148.737 20.7295C148.531 18.9675 147.92 17.6177 146.906 16.6802C145.891 15.7427 144.552 15.2661 142.888 15.2506L140.44 15.2276C139.032 15.2145 138.086 15.4136 137.602 15.8251C137.118 16.2366 136.87 17.0183 136.858 18.1703L136.639 40.0092C136.628 41.1611 136.828 41.947 137.24 42.3669C137.684 42.7871 138.561 43.0033 139.873 43.0156L143.041 43.0452C144.833 43.062 146.326 42.5479 147.521 41.5031C148.748 40.4265 149.595 38.8983 150.063 36.9186C150.064 36.8546 150.128 36.8232 150.256 36.8244C150.352 36.8253 150.432 36.8581 150.495 36.9227C150.591 36.9556 150.638 36.988 150.638 37.02C150.295 39.3209 150.113 41.4793 150.093 43.4952C150.09 43.7512 150.041 43.9427 149.943 44.0698C149.846 44.1649 149.654 44.2111 149.366 44.2084L128.919 44.0171ZM146.789 33.1438C146.802 31.7679 146.413 30.7562 145.619 30.1088C144.858 29.4296 143.629 29.0821 141.933 29.0662L134.926 29.0007L134.937 27.8967L142.04 27.9632C143.672 27.9785 144.875 27.7177 145.648 27.1809C146.422 26.6121 146.815 25.7358 146.827 24.5518C146.827 24.4878 146.908 24.4566 147.068 24.4581C147.26 24.4599 147.355 24.4928 147.355 24.5568L147.266 28.5881L147.293 30.7484C147.346 31.773 147.37 32.5733 147.365 33.1492C147.364 33.2132 147.268 33.2443 147.076 33.2425C146.884 33.2407 146.788 33.2078 146.789 33.1438Z" fill="white"/>
<path d="M161.601 44.4907C161.511 44.4573 161.502 44.3514 161.573 44.173C161.644 43.9945 161.724 43.922 161.814 43.9554C162.924 44.3669 163.764 44.5928 164.333 44.6332C164.902 44.6736 165.359 44.519 165.705 44.1693C166.092 43.8011 166.463 43.1709 166.817 42.2787L175.02 21.6239C175.374 20.7317 175.544 20.044 175.53 19.5609C175.515 19.0778 175.282 18.6674 174.831 18.3296C174.422 17.9732 173.677 17.5948 172.597 17.1944C172.507 17.161 172.497 17.0551 172.568 16.8767C172.639 16.6982 172.719 16.6257 172.81 16.6591L191.172 23.466C191.473 23.5772 191.569 23.7667 191.463 24.0343L189.321 29.6887C189.285 29.7779 189.172 29.804 188.98 29.767C188.83 29.7114 188.758 29.6334 188.763 29.5331C189.203 27.8195 189.114 26.3535 188.496 25.1351C187.878 23.9167 186.789 23.0183 185.229 22.44L182.934 21.5891C181.644 21.1108 180.682 20.976 180.048 21.1847C179.456 21.3747 178.959 21.9754 178.558 22.9865L170.444 43.4182C170.066 44.3699 169.908 45.1133 169.971 45.6484C170.076 46.1649 170.453 46.6458 171.102 47.0912C171.751 47.5365 172.856 48.0484 174.416 48.6268C174.476 48.649 174.471 48.7494 174.4 48.9278C174.329 49.1063 174.263 49.1844 174.203 49.1621C172.973 48.7061 172.019 48.3353 171.341 48.0498L167.128 46.4369L163.96 45.3136C163.378 45.132 162.592 44.8577 161.601 44.4907ZM181.711 40.7884C182.219 39.5095 182.201 38.4281 181.657 37.5441C181.125 36.6304 180.004 35.8565 178.294 35.2226L172.578 33.1037L172.985 32.0777L178.836 34.2466C180.457 34.8472 181.748 35.0188 182.711 34.7616C183.703 34.5154 184.412 33.857 184.838 32.7864C184.861 32.7269 184.963 32.7305 185.143 32.7973C185.323 32.864 185.401 32.9271 185.378 32.9866L183.845 36.7172C183.49 37.6094 183.239 38.2841 183.092 38.7414L182.251 40.9886C182.228 41.0481 182.126 41.0444 181.946 40.9777C181.766 40.911 181.688 40.8478 181.711 40.7884Z" fill="white"/>
<path d="M194.379 61.1556C191.772 59.9994 189.729 58.3719 188.248 56.2733C186.809 54.1593 186.015 51.8289 185.868 49.2818C185.762 46.7195 186.288 44.2197 187.446 41.7822C188.802 38.9292 190.689 36.815 193.107 35.4395C195.539 34.0363 198.134 33.3258 200.891 33.308C203.677 33.3027 206.261 33.8284 208.644 34.8852C211.307 36.0663 213.352 37.7277 214.778 39.8693C216.217 41.9832 216.989 44.2874 217.094 46.7819C217.226 49.2888 216.753 51.6779 215.674 53.9492C214.476 56.4698 212.704 58.4842 210.358 59.9926C208.012 61.5009 205.415 62.3609 202.565 62.5725C199.743 62.7966 197.015 62.3244 194.379 61.1556ZM196.285 60.8943C198.08 61.69 199.909 61.9479 201.773 61.6679C203.637 61.388 205.39 60.5557 207.032 59.1713C208.715 57.7715 210.136 55.8529 211.294 53.4154C212.518 50.8394 213.148 48.3353 213.184 45.903C213.248 43.4831 212.694 41.3262 211.524 39.4321C210.381 37.5505 208.689 36.1124 206.446 35.1177C203.531 33.8247 200.793 33.8009 198.232 35.0464C195.685 36.2642 193.596 38.5904 191.964 42.0251C190.713 44.6565 190.044 47.2437 189.956 49.7868C189.867 52.3299 190.36 54.5776 191.435 56.5299C192.538 58.4946 194.155 59.9494 196.285 60.8943Z" fill="white"/>
<path d="M229.705 61.993C229.762 62.8871 229.884 63.5369 230.071 63.9425C230.287 64.3141 230.64 64.5653 231.13 64.6961C231.617 64.795 232.372 64.8136 233.394 64.7519L237.467 64.5064C239.479 64.3851 241.102 63.6942 242.335 62.4337C243.598 61.1394 244.388 59.4568 244.703 57.3861C244.697 57.2903 244.774 57.2536 244.936 57.2759C245.128 57.2644 245.227 57.3065 245.233 57.4023C245.127 60.2298 245.134 62.5696 245.253 64.4217C245.27 64.6772 245.218 64.8726 245.099 65.0081C245.009 65.1096 244.837 65.1681 244.581 65.1835L222.254 66.5295C222.19 66.5334 222.152 66.4395 222.139 66.2479C222.127 66.0563 222.153 65.9586 222.216 65.9547C223.366 65.8854 224.208 65.7546 224.74 65.5622C225.273 65.3698 225.621 65.0442 225.784 64.5856C225.944 64.0951 225.994 63.3708 225.932 62.4128L224.499 40.235C224.438 39.277 224.296 38.5802 224.076 38.1447C223.855 37.7092 223.468 37.428 222.915 37.301C222.36 37.1422 221.507 37.0974 220.357 37.1667C220.293 37.1706 220.255 37.0767 220.243 36.8851C220.23 36.6935 220.256 36.5958 220.32 36.5919L222.719 36.4954C224.128 36.4745 225.264 36.4381 226.127 36.3861C226.989 36.3341 228.121 36.2338 229.522 36.0852L231.915 35.8929C231.979 35.8891 232.017 35.9829 232.029 36.1745C232.042 36.3661 232.016 36.4639 231.952 36.4677C230.802 36.537 229.962 36.6839 229.431 36.9082C228.93 37.0987 228.6 37.4392 228.439 37.9298C228.276 38.3884 228.226 39.0967 228.288 40.0547L229.705 61.993Z" fill="white"/>
<path d="M261.489 56.4148C261.811 57.353 262.121 58.0095 262.419 58.3843C262.747 58.7494 263.181 58.9294 263.721 58.9244C264.291 58.9096 265.14 58.7215 266.267 58.3599C266.328 58.3404 266.39 58.4214 266.452 58.603C266.515 58.7846 266.515 58.8851 266.454 58.9047C265.479 59.2173 264.712 59.4465 264.153 59.5921L260.847 60.602L257.663 61.6733C257.094 61.8892 256.307 62.1584 255.302 62.4809C255.241 62.5004 255.179 62.4194 255.117 62.2378C255.054 62.0562 255.054 61.9556 255.114 61.9361C256.211 61.5843 256.993 61.2498 257.459 60.9323C257.925 60.6149 258.177 60.215 258.214 59.7327C258.271 59.2104 258.144 58.4952 257.832 57.5873L250.611 36.569C250.3 35.6611 249.964 35.0295 249.605 34.6742C249.277 34.3091 248.828 34.134 248.258 34.1488C247.677 34.1333 246.839 34.3014 245.742 34.6532C245.681 34.6727 245.619 34.5917 245.557 34.4101C245.494 34.2286 245.494 34.128 245.555 34.1084L247.947 33.3917C249.308 33.0223 250.385 32.7106 251.178 32.4565C252.061 32.1732 253.163 31.7863 254.483 31.2958L256.707 30.5323C256.768 30.5127 256.83 30.5937 256.892 30.7753C256.955 30.9569 256.955 31.0575 256.894 31.077C255.797 31.4288 255.021 31.7785 254.565 32.1262C254.14 32.4641 253.914 32.8894 253.887 33.4019C253.85 33.8843 253.987 34.5794 254.299 35.4873L261.489 56.4148Z" fill="white"/>
<path d="M284.714 54.0305C281.965 54.7897 279.324 54.8349 276.792 54.1663C274.281 53.4601 272.112 52.1822 270.286 50.3326C268.481 48.4455 267.196 46.208 266.43 43.6202C265.534 40.5913 265.537 37.7913 266.439 35.2201C267.332 32.6195 268.815 30.4447 270.888 28.6954C272.99 26.938 275.297 25.7124 277.81 25.0186C280.618 24.2432 283.282 24.2232 285.802 24.9588C288.313 25.665 290.448 26.9364 292.206 28.7729C293.994 30.6012 295.245 32.7211 295.958 35.1324C296.75 37.8085 296.767 40.4598 296.009 43.0866C295.251 45.7133 293.867 48.0042 291.855 49.9592C289.873 51.9061 287.493 53.2632 284.714 54.0305ZM285.979 52.6316C287.871 52.1092 289.427 51.1546 290.647 49.7679C291.868 48.3812 292.633 46.6431 292.942 44.5538C293.272 42.4269 293.054 40.0695 292.288 37.4817C291.479 34.7469 290.27 32.4408 288.659 30.5635C287.078 28.678 285.208 27.3814 283.048 26.6736C280.917 25.9577 278.67 25.9262 276.305 26.5793C273.231 27.4282 271.145 29.1333 270.048 31.6946C268.943 34.2265 268.929 37.3157 270.008 40.9621C270.835 43.7558 272.071 46.1501 273.716 48.145C275.361 50.14 277.247 51.5436 279.374 52.3559C281.531 53.16 283.732 53.2519 285.979 52.6316Z" fill="white"/>
</g>
<defs>
<linearGradient id="paint0_linear_19_6615" x1="-124" y1="57.437" x2="887" y2="57.437" gradientUnits="userSpaceOnUse">
<stop offset="0.240385" stop-color="#E6EBFE"/>
<stop offset="0.350962" stop-color="#4F5055"/>
<stop offset="0.500178" stop-color="#1F1F20"/>
</linearGradient>
<clipPath id="clip0_19_6615">
<rect width="303" height="82" fill="white"/>
</clipPath>
</defs>
</svg>
